<svg xmlns="http://www.w3.org/2000/svg" xmlns:xlink="http://www.w3.org/1999/xlink" viewBox="0,0,256,256" width="50px" height="50px" fill-rule="nonzero"><g fill-opacity="0" fill="#110000" fill-rule="nonzero" stroke="none" stroke-width="1" stroke-linecap="butt" stroke-linejoin="miter" stroke-miterlimit="10" stroke-dasharray="" stroke-dashoffset="0" font-family="none" font-weight="none" font-size="none" text-anchor="none" style="mix-blend-mode: normal"><path d="M0,256v-256h256v256z" id="bgRectangle"></path></g><g fill="#000000" fill-rule="nonzero" stroke="none" stroke-width="1" stroke-linecap="butt" stroke-linejoin="miter" stroke-miterlimit="10" stroke-dasharray="" stroke-dashoffset="0" font-family="none" font-weight="none" font-size="none" text-anchor="none" style="mix-blend-mode: normal"><g transform="scale(5.12,5.12)"><path d="M34.23242,5.47852c-5.98032,0 -10.84766,4.86719 -10.84766,10.8457c0,0.36265 0.08617,0.70389 0.12109,1.05859c-7.39514,-0.70503 -13.94546,-4.28703 -18.38867,-9.73633c-0.20741,-0.254 -0.52616,-0.39018 -0.85308,-0.36447c-0.32691,0.02572 -0.62045,0.21007 -0.78559,0.49337c-0.93381,1.60553 -1.46875,3.47417 -1.46875,5.45703c0,2.41516 0.85183,4.60634 2.19141,6.41406c-0.25939,-0.11343 -0.53909,-0.18747 -0.78516,-0.32422c-0.30961,-0.17226 -0.68725,-0.16784 -0.99275,0.01161c-0.3055,0.17945 -0.49326,0.50714 -0.49357,0.86144v0.125c0,3.69388 1.91092,6.89276 4.73828,8.85352c-0.03317,-0.006 -0.06846,-0.00337 -0.10156,-0.00977c-0.34661,-0.06638 -0.70255,0.05482 -0.93661,0.31895c-0.23406,0.26412 -0.31159,0.63205 -0.20402,0.96816c1.12007,3.48319 3.98817,6.11062 7.53711,7.07031c-2.81715,1.68025 -6.08599,2.67773 -9.61328,2.67773c-0.7602,0 -1.50241,-0.04305 -2.22852,-0.13086c-0.46389,-0.05733 -0.90562,0.2143 -1.06378,0.65415c-0.15816,0.43985 0.00944,0.93058 0.40362,1.18179c4.51042,2.89408 9.87836,4.58203 15.63477,4.58203c9.33316,0 16.64287,-3.89545 21.55469,-9.4668c4.91182,-5.57135 7.4668,-12.79045 7.4668,-19.54883c0,-0.28219 -0.0095,-0.55715 -0.01758,-0.83398c1.83023,-1.39949 3.45191,-3.067 4.73242,-4.98437c0.24873,-0.3703 0.22215,-0.86055 -0.06516,-1.20179c-0.28731,-0.34123 -0.76587,-0.45094 -1.17312,-0.26892c-0.51425,0.22804 -1.11019,0.26972 -1.64648,0.45117c0.70602,-0.94649 1.3117,-1.9789 1.67969,-3.12891c0.12611,-0.39554 -0.00526,-0.82787 -0.33012,-1.08638c-0.32486,-0.2585 -0.77565,-0.28942 -1.13277,-0.07769c-1.70257,1.0083 -3.58884,1.73065 -5.58008,2.16406c-1.94082,-1.82204 -4.48732,-3.02539 -7.35156,-3.02539zM34.23242,7.47852c2.55093,0 4.84452,1.07176 6.45703,2.79297c0.23569,0.25107 0.58397,0.36323 0.92188,0.29688c1.30127,-0.25596 2.54679,-0.65641 3.75,-1.14258c-0.69557,0.93665 -1.52822,1.76274 -2.5332,2.36523c-0.40367,0.24329 -0.58269,0.7354 -0.4297,1.18119c0.15299,0.44579 0.59647,0.72427 1.06446,0.66841c0.99869,-0.1207 1.8879,-0.52467 2.83789,-0.7793c-0.85468,0.92594 -1.77663,1.78651 -2.79687,2.52344c-0.27276,0.19678 -0.42834,0.51748 -0.41406,0.85351c0.0175,0.40735 0.02734,0.82052 0.02734,1.23242c0,6.25063 -2.39612,13.04021 -6.9668,18.22461c-4.57068,5.1844 -11.27385,8.79102 -20.05469,8.79102c-3.98354,0 -7.75437,-0.87265 -11.1543,-2.42187c4.2195,-0.32276 8.11263,-1.8278 11.25391,-4.29102c0.33299,-0.26094 0.46578,-0.70318 0.3316,-1.10439c-0.13418,-0.40121 -0.50628,-0.6746 -0.92926,-0.68272c-3.29268,-0.06037 -6.05391,-1.97032 -7.5293,-4.67773c0.05665,0.0009 0.10911,0.01563 0.16602,0.01563c0.98634,0 1.94594,-0.13171 2.85742,-0.38281c0.44517,-0.12396 0.74745,-0.53678 0.7312,-0.9986c-0.01624,-0.46182 -0.34678,-0.85238 -0.79956,-0.94476c-3.5572,-0.71824 -6.21491,-3.60827 -6.83398,-7.20898c1.00606,0.34868 2.05462,0.60347 3.16992,0.63867c0.44524,0.01272 0.84522,-0.27053 0.98104,-0.69474c0.13582,-0.42421 -0.02527,-0.8871 -0.3951,-1.13534c-2.37658,-1.58858 -3.93555,-4.28784 -3.93555,-7.36523c0,-1.14528 0.27971,-2.2043 0.67383,-3.20703c4.99902,5.49376 11.99498,9.1447 19.90625,9.54297c0.31395,0.01621 0.61724,-0.11613 0.81887,-0.35732c0.20163,-0.24119 0.27812,-0.56314 0.20652,-0.86924c-0.15149,-0.64717 -0.23047,-1.32267 -0.23047,-2.01758c0,-4.89748 3.94797,-8.8457 8.84766,-8.8457z" style="fill: white"></path></g></g></svg>